<svg width="30" height="30" viewBox="0 0 30 30" fill="none" xmlns="http://www.w3.org/2000/svg">
<path d="M28.5938 7.5H28.125V4.6875C28.125 2.0625 22.3125 0 15 0C7.6875 0 1.875 2.0625 1.875 4.6875V7.5H1.40625C0.629883 7.5 0 8.1293 0 8.90625V13.5938C0 14.3701 0.629883 15 1.40625 15H1.875V24.375C1.875 25.4104 2.71465 26.25 3.75 26.25V28.125C3.75 29.1604 4.58965 30 5.625 30H7.5C8.53535 30 9.375 29.1604 9.375 28.125V26.25H20.625V28.125C20.625 29.1604 21.4646 30 22.5 30H24.375C25.4104 30 26.25 29.1604 26.25 28.125V26.25H26.625C27.5625 26.25 28.125 25.5 28.125 24.75V15H28.5938C29.3701 15 30 14.3701 30 13.5938V8.90625C30 8.1293 29.3701 7.5 28.5938 7.5ZM6.5625 23.4375C5.52715 23.4375 4.6875 22.5979 4.6875 21.5625C4.6875 20.5271 5.52715 19.6875 6.5625 19.6875C7.59785 19.6875 8.4375 20.5271 8.4375 21.5625C8.4375 22.5979 7.59785 23.4375 6.5625 23.4375ZM7.5 16.875C6.46465 16.875 5.625 16.0354 5.625 15V7.5C5.625 6.46465 6.46465 5.625 7.5 5.625H22.5C23.5354 5.625 24.375 6.46465 24.375 7.5V15C24.375 16.0354 23.5354 16.875 22.5 16.875H7.5ZM23.4375 23.4375C22.4021 23.4375 21.5625 22.5979 21.5625 21.5625C21.5625 20.5271 22.4021 19.6875 23.4375 19.6875C24.4729 19.6875 25.3125 20.5271 25.3125 21.5625C25.3125 22.5979 24.4729 23.4375 23.4375 23.4375Z" fill="#AFE7E3"/>
</svg>
