<svg width="54" height="40" viewBox="0 0 54 40" fill="none" xmlns="http://www.w3.org/2000/svg">
<path d="M52.0819 11.6667H45.8455L44.1121 7.33333C42.3309 2.87812 38.0798 0 33.2809 0H20.0517C15.2538 0 11.0017 2.87812 9.21941 7.33333L7.48608 11.6667H1.25066C0.437121 11.6667 -0.159754 12.4312 0.0381628 13.2198L0.663163 15.7198C0.801704 16.276 1.3017 16.6667 1.87566 16.6667H3.96629C2.56733 17.8885 1.66629 19.6646 1.66629 21.6667V26.6667C1.66629 28.3458 2.30795 29.8615 3.33295 31.0344V36.6667C3.33295 38.5073 4.82566 40 6.66629 40H9.99962C11.8402 40 13.333 38.5073 13.333 36.6667V33.3333H39.9996V36.6667C39.9996 38.5073 41.4923 40 43.333 40H46.6663C48.5069 40 49.9996 38.5073 49.9996 36.6667V31.0344C51.0246 29.8625 51.6663 28.3469 51.6663 26.6667V21.6667C51.6663 19.6646 50.7652 17.8885 49.3673 16.6667H51.458C52.0319 16.6667 52.5319 16.276 52.6705 15.7198L53.2955 13.2198C53.4923 12.4312 52.8955 11.6667 52.0819 11.6667ZM15.409 9.80937C16.1684 7.91146 18.0069 6.66667 20.0517 6.66667H33.2809C35.3257 6.66667 37.1642 7.91146 37.9236 9.80937L39.9996 15H13.333L15.409 9.80937ZM9.99962 26.6458C7.99962 26.6458 6.66629 25.3167 6.66629 23.3229C6.66629 21.3292 7.99962 20 9.99962 20C11.9996 20 14.9996 22.9906 14.9996 24.9844C14.9996 26.9781 11.9996 26.6458 9.99962 26.6458ZM43.333 26.6458C41.333 26.6458 38.333 26.9781 38.333 24.9844C38.333 22.9906 41.333 20 43.333 20C45.333 20 46.6663 21.3292 46.6663 23.3229C46.6663 25.3167 45.333 26.6458 43.333 26.6458Z" fill="#3D3D3D"/>
</svg>
