<svg width="21" height="21" viewBox="0 0 21 21" fill="none" xmlns="http://www.w3.org/2000/svg">
<path d="M8.31855 10.5894L2.04171 4.27848L0.747294 2.97703C0.556345 2.78505 0.556345 2.47307 0.747294 2.28108L2.13229 0.888563C2.32324 0.696576 2.63353 0.696576 2.82448 0.888563L10.3957 8.50096L17.967 0.887948C18.1579 0.695961 18.4682 0.695961 18.6592 0.887948L20.0448 2.28047C20.2357 2.47245 20.2357 2.78443 20.0448 2.97642L12.4729 10.5894L20.0448 18.2018C20.2357 18.3938 20.2357 18.7058 20.0448 18.8978L18.6598 20.2903C18.4688 20.4823 18.1585 20.4823 17.9676 20.2903L10.3957 12.6779L4.11889 18.9889L2.82448 20.2903C2.63353 20.4823 2.32324 20.4823 2.13229 20.2903L0.747294 18.8978C0.556345 18.7058 0.556345 18.3938 0.747294 18.2018L8.31855 10.5894Z" fill="#322F2A"/>
</svg>
