<svg width="43" height="39" viewBox="0 0 43 39" fill="none" xmlns="http://www.w3.org/2000/svg">
<path d="M43 10.0938V34.2812C43 36.5068 41.1943 38.3125 38.9688 38.3125H4.03125C1.80566 38.3125 0 36.5068 0 34.2812V10.0938C0 7.86816 1.80566 6.0625 4.03125 6.0625H11.4219L12.4549 3.29941C13.0428 1.72891 14.5461 0.6875 16.2258 0.6875H26.7658C28.4455 0.6875 29.9488 1.72891 30.5367 3.29941L31.5781 6.0625H38.9688C41.1943 6.0625 43 7.86816 43 10.0938ZM31.5781 22.1875C31.5781 16.6277 27.0598 12.1094 21.5 12.1094C15.9402 12.1094 11.4219 16.6277 11.4219 22.1875C11.4219 27.7473 15.9402 32.2656 21.5 32.2656C27.0598 32.2656 31.5781 27.7473 31.5781 22.1875ZM28.8906 22.1875C28.8906 26.2607 25.5732 29.5781 21.5 29.5781C17.4268 29.5781 14.1094 26.2607 14.1094 22.1875C14.1094 18.1143 17.4268 14.7969 21.5 14.7969C25.5732 14.7969 28.8906 18.1143 28.8906 22.1875Z" fill="#3D3D3D"/>
</svg>
