<svg width="18" height="18" viewBox="0 0 18 18" fill="none" xmlns="http://www.w3.org/2000/svg">
<path d="M16.7307 4.07582L13.4966 0.79918C13.1495 0.447548 12.6788 0.250003 12.188 0.25H1.85065C0.828551 0.25 0 1.08945 0 2.125V15.875C0 16.9105 0.828551 17.75 1.85065 17.75H15.4221C16.4442 17.75 17.2727 16.9105 17.2727 15.875V5.40164C17.2727 4.90436 17.0777 4.42745 16.7307 4.07582V4.07582ZM8.63636 15.25C7.27359 15.25 6.16883 14.1307 6.16883 12.75C6.16883 11.3693 7.27359 10.25 8.63636 10.25C9.99914 10.25 11.1039 11.3693 11.1039 12.75C11.1039 14.1307 9.99914 15.25 8.63636 15.25ZM12.3377 3.35469V7.28125C12.3377 7.54012 12.1305 7.75 11.875 7.75H2.9302C2.67469 7.75 2.46753 7.54012 2.46753 7.28125V3.21875C2.46753 2.95988 2.67469 2.75 2.9302 2.75H11.7408C11.8635 2.75 11.9812 2.79937 12.068 2.8873L12.2021 3.02324C12.2451 3.06676 12.2792 3.11843 12.3024 3.1753C12.3257 3.23218 12.3377 3.29313 12.3377 3.35469V3.35469Z" fill="#322F2A"/>
</svg>
