<svg width="20" height="22" viewBox="0 0 20 22" fill="none" xmlns="http://www.w3.org/2000/svg">
<path d="M9.01992 0.836306C9.23646 -0.23221 10.7635 -0.232208 10.9801 0.836308L12.0252 5.99339C12.1446 6.58265 12.7533 6.93407 13.3233 6.74285L18.312 5.06938C19.3456 4.72265 20.1091 6.04514 19.2921 6.76693L15.3484 10.2505C14.8978 10.6486 14.8978 11.3514 15.3484 11.7495L19.2921 15.2331C20.1091 15.9549 19.3456 17.2774 18.312 16.9306L13.3233 15.2571C12.7532 15.0659 12.1446 15.4173 12.0252 16.0066L10.9801 21.1637C10.7635 22.2322 9.23646 22.2322 9.01992 21.1637L7.97484 16.0066C7.85543 15.4173 7.24675 15.0659 6.67673 15.2571L1.68802 16.9306C0.654393 17.2774 -0.109149 15.9549 0.707946 15.2331L4.65157 11.7495C5.10218 11.3514 5.10218 10.6486 4.65157 10.2505L0.707944 6.76692C-0.10915 6.04514 0.654394 4.72265 1.68802 5.06938L6.67673 6.74285C7.24675 6.93407 7.85543 6.58265 7.97484 5.99339L9.01992 0.836306Z" fill="#C4C4C4"/>
</svg>
