<svg width="45" height="45" viewBox="0 0 45 45" fill="none" xmlns="http://www.w3.org/2000/svg">
<path d="M44.2969 22.4588C44.3191 34.4682 34.5252 44.2884 22.5158 44.2968C17.329 44.3005 12.5646 42.4924 8.82053 39.4706C7.84696 38.6849 7.77419 37.2258 8.6589 36.3411L9.64916 35.3508C10.4058 34.5942 11.6138 34.5114 12.4521 35.1765C15.2105 37.3654 18.7015 38.6719 22.5 38.6719C31.4389 38.6719 38.6719 31.4375 38.6719 22.5C38.6719 13.5611 31.4375 6.32813 22.5 6.32813C18.2097 6.32813 14.3131 7.99532 11.4198 10.7167L15.8806 15.1775C16.7665 16.0634 16.1391 17.5781 14.8863 17.5781H2.10938C1.33269 17.5781 0.703125 16.9486 0.703125 16.1719V3.39495C0.703125 2.14216 2.21783 1.51471 3.10377 2.40056L7.44311 6.73989C11.3563 3.00023 16.6598 0.703125 22.5 0.703125C34.5243 0.703125 44.2746 10.4396 44.2969 22.4588ZM28.3964 29.3832L29.2598 28.2731C29.975 27.3535 29.8093 26.0282 28.8897 25.313L25.3125 22.5307V13.3594C25.3125 12.1944 24.3681 11.25 23.2031 11.25H21.7969C20.6319 11.25 19.6875 12.1944 19.6875 13.3594V25.2818L25.4363 29.7532C26.3559 30.4683 27.6812 30.3028 28.3964 29.3832Z" fill="#3D3D3D"/>
</svg>
