<svg width="16" height="18" viewBox="0 0 16 18" fill="none" xmlns="http://www.w3.org/2000/svg">
<path d="M15.1875 1.12501H10.9688L10.6383 0.467584C10.5683 0.327035 10.4604 0.208807 10.3269 0.126203C10.1934 0.0435979 10.0394 -0.000106452 9.88242 6.16385e-06H5.86406C5.7074 -0.000596082 5.55373 0.0429453 5.42067 0.125642C5.28761 0.208338 5.18054 0.326845 5.11172 0.467584L4.78125 1.12501H0.5625C0.413316 1.12501 0.270242 1.18427 0.164752 1.28976C0.0592632 1.39525 0 1.53832 0 1.68751L0 2.81251C0 2.96169 0.0592632 3.10476 0.164752 3.21025C0.270242 3.31574 0.413316 3.37501 0.5625 3.37501H15.1875C15.3367 3.37501 15.4798 3.31574 15.5852 3.21025C15.6907 3.10476 15.75 2.96169 15.75 2.81251V1.68751C15.75 1.53832 15.6907 1.39525 15.5852 1.28976C15.4798 1.18427 15.3367 1.12501 15.1875 1.12501ZM1.87031 16.418C1.89714 16.8464 2.08623 17.2485 2.39908 17.5424C2.71194 17.8363 3.12504 18 3.5543 18H12.1957C12.625 18 13.0381 17.8363 13.3509 17.5424C13.6638 17.2485 13.8529 16.8464 13.8797 16.418L14.625 4.50001H1.125L1.87031 16.418Z" fill="#322F2A"/>
</svg>
